<svg width="316" height="203" viewBox="0 0 316 203" fill="none" xmlns="http://www.w3.org/2000/svg"><g filter="url(#a)"><rect x="30" y="15" width="256" height="143" rx="10" fill="#333"/></g><path d="m56.5 44.7.4 1.4h.1l.3-1.4 2.2-5.9h1.3L58 46.1a43 43 0 0 1-1.4 3.1l-.7.7-1 .2-.8-.1-.6-.3.4-1 .6.1.5.1c.3 0 .5-.2.7-.5l.6-1.3-4.2-8.3h1.5l3 5.9Zm6.8 1.7h-.8V50h-1.3v-8h1.3v3.6l.7-.2 2.6-3.4h1.4l-2.5 3.2-.7.5.8.7 2.7 3.6H66l-2.6-3.6Zm5.5-3.8c.4-.3.8-.4 1.4-.6a8 8 0 0 1 1.7-.1c.5 0 1 0 1.3.2.3.1.6.3.8.6.1.2.3.5.3.8l.1.8a35.6 35.6 0 0 1 0 3.6 12.4 12.4 0 0 0 .1 2.1h-1l-.2-1h-.1a2.7 2.7 0 0 1-.9.7 3.6 3.6 0 0 1-1.6.4l-1-.1-.7-.5-.5-.7c-.2-.3-.2-.6-.2-1s0-.8.3-1.1c.2-.3.4-.6.8-.8l1.2-.4h2.5v-1c0-.5 0-1-.3-1.2-.2-.2-.7-.3-1.3-.3a5 5 0 0 0-1.9.3l-.4.3-.4-1ZM71 49l.8-.1c.3 0 .5-.2.6-.3l.5-.4.2-.5v-1.3a6.5 6.5 0 0 0-.9 0h-1c-.3 0-.6.1-.8.3-.2 0-.4.2-.6.4a1 1 0 0 0-.2.6c0 .4.1.7.4 1 .3.2.6.3 1 .3Zm8.4-2.5L77.1 50h-1.5l2.5-3.7.6-.4-.8-.7-2.1-3.2H77l2.3 3.5h.8V42h1.2v3.6l.8-.2 2.2-3.4h1.4l-2.2 3.2-.6.6.8.6L86 50h-1.5l-2.3-3.6h-.9V50h-1.2v-3.8l-.8.3Zm13-1.2v-1l-.7 1-3.6 4.7h-.7v-8h1.3v4.9l-.1 1 .7-1 3.6-4.9h.7v8h-1.2v-4.7Zm8.8-2.2h-2.5V50h-1.3v-6.9H95V42h6.3v1.1Zm6.9 6.3-1.3.6a5.1 5.1 0 0 1-3-.1 3 3 0 0 1-1.2-.8c-.3-.4-.5-.9-.6-1.4-.2-.5-.2-1-.2-1.7 0-1.4.3-2.4.9-3.1.6-.7 1.5-1 2.6-1h1l1 .5c.3.2.6.5.8 1l.2 1.6V46H103l.1 1.3.5.9.8.6 1.2.2a3.2 3.2 0 0 0 1.9-.7l.5 1Zm-2.8-6.5c-.6 0-1.1.2-1.5.5-.4.4-.6 1-.7 1.7h4c0-.8-.2-1.4-.5-1.7-.3-.3-.7-.5-1.3-.5Zm11.3 3.5h-.7V50h-1.3v-8h1.3v3.6l.7-.2L119 42h1.4l-2.5 3.2-.6.5.8.7L121 50h-1.6l-2.7-3.6Zm5-.4c0-1.4.3-2.4 1-3.1.5-.7 1.4-1 2.5-1 .6 0 1.1 0 1.6.2.4.2.8.5 1 .9.4.3.6.8.7 1.3.2.5.2 1 .2 1.7 0 1.4-.3 2.4-.9 3.1-.6.7-1.4 1-2.6 1a4 4 0 0 1-1.5-.2 3 3 0 0 1-1.1-.8l-.7-1.4-.2-1.7Zm1.4 0v1.2l.5 1 .6.6c.3.2.6.3 1 .3 1.5 0 2.2-1 2.2-3.1l-.1-1.2a3 3 0 0 0-.4-1 1.9 1.9 0 0 0-1.7-.9c-1.4 0-2.1 1-2.1 3.1Zm11.9-2.9h-2.4a144.2 144.2 0 0 0-.5 4.5c0 .5-.2.9-.4 1.3-.1.3-.3.6-.6.8-.2.3-.5.4-.8.4h-.6l-.4-.2.2-1h.5c.2 0 .4 0 .5-.3.2-.1.4-.5.5-1l.3-2.1.2-3.5h4.7v8H135v-6.9Zm8.7 2.2v-1l-.7 1-3.6 4.7h-.7v-8h1.3v5.9l.6-1 3.6-4.9h.8v8h-1.3v-4.7Zm4.6-3.3v3l.2.6.4.3.7.2c.5 0 1 0 1.2-.2l.7-.3V42h1.3v8h-1.3v-3.4l-.7.4a4 4 0 0 1-1.4.2l-1-.1-.8-.5-.5-.8-.1-1.4V42h1.3Zm12.8 7.4-1.2.6a5.1 5.1 0 0 1-3.1-.1 3 3 0 0 1-1.1-.8l-.7-1.4-.2-1.7c0-1.4.3-2.4 1-3.1.6-.7 1.4-1 2.6-1h1l1 .5c.3.2.5.5.7 1 .2.3.3.9.3 1.6l-.1 1.1h-5.1l.1 1.3.5.9.7.6 1.2.2a3.3 3.3 0 0 0 2-.7l.4 1Zm-2.7-6.5c-.7 0-1.2.2-1.5.5-.4.4-.6 1-.7 1.7h4c0-.8-.2-1.4-.5-1.7-.3-.3-.8-.5-1.3-.5Zm10.3 6.6-1.1.5a4.9 4.9 0 0 1-3-.1c-.4-.2-.8-.5-1-.8-.3-.4-.5-.9-.6-1.4a8 8 0 0 1-.2-1.7c0-1.4.3-2.4.9-3.1.6-.7 1.4-1 2.6-1a5.6 5.6 0 0 1 2.2.4l-.3 1-.8-.2-1-.2c-1.5 0-2.3 1-2.3 3.1l.1 1.2.4 1 .8.6c.3.2.7.3 1.1.3.4 0 .7 0 1-.2l.8-.4.4 1Zm6.6-6.4h-2.5V50h-1.3v-6.9H169V42h6.3v1.1Zm1.3-1a53.4 53.4 0 0 0 2.7-.2c1 0 1.8.2 2.2.5.5.3.7.8.7 1.5 0 .3 0 .7-.3 1a2 2 0 0 1-1 .8v.1c.6.1 1 .3 1.3.7.2.3.3.7.3 1.2 0 .9-.3 1.5-.9 1.9-.6.3-1.5.5-2.7.5a15 15 0 0 1-2.3-.1v-8Zm1.2 6.8a12.2 12.2 0 0 0 1.3 0c.8 0 1.3 0 1.6-.2.4-.2.6-.6.6-1s-.2-.7-.5-1c-.3-.2-.8-.3-1.5-.3h-1.5v2.5Zm1.6-3.5a1.7 1.7 0 0 0 1.4-.8l.2-.5c0-.4-.2-.7-.4-.8-.3-.2-.7-.3-1.4-.3a16.3 16.3 0 0 0-1.4 0v2.4h1.6Zm4.7.6c0-1.4.3-2.4.9-3.1.6-.7 1.5-1 2.6-1 .6 0 1.1 0 1.6.2.4.2.8.5 1 .9.4.3.6.8.7 1.3l.2 1.7c0 1.4-.3 2.4-.9 3.1-.6.7-1.5 1-2.6 1a4 4 0 0 1-1.6-.2 3 3 0 0 1-1-.8c-.3-.4-.6-.9-.7-1.4L184 46Zm1.3 0 .1 1.2.4 1 .7.6c.3.2.6.3 1 .3 1.5 0 2.2-1 2.2-3.1l-.1-1.2a3 3 0 0 0-.4-1 1.9 1.9 0 0 0-1.7-.9c-1.4 0-2.2 1-2.2 3.1Zm18.7 6h-.9l-.2-2h-6l-.3 2h-.9V49h1l.3-.6.4-1.3.4-2 .2-3h4.8v6.9h1.2V52Zm-2.5-3.1V43h-2.4a27.4 27.4 0 0 1-.7 4.6l-.4 1.2h3.5Zm9.9.5-1.2.6a5.1 5.1 0 0 1-3.2-.1 3 3 0 0 1-1-.8c-.3-.4-.6-.9-.7-1.4l-.2-1.7c0-1.4.3-2.4 1-3.1.5-.7 1.4-1 2.5-1h1.1l1 .5c.3.2.5.5.7 1 .2.3.3.9.3 1.6l-.1 1.1h-5.2c0 .5 0 1 .2 1.3 0 .3.2.6.4.9l.8.6 1.2.2a3.3 3.3 0 0 0 2-.7l.4 1Zm-2.8-6.5c-.6 0-1.1.2-1.5.5-.4.4-.6 1-.7 1.7h4c0-.8-.1-1.4-.5-1.7-.3-.3-.7-.5-1.3-.5Zm10.2.2h-2.5V50H215v-6.9h-2.5V42h6.3v1.1Zm6.8 6.3-1.2.6a5.1 5.1 0 0 1-3.1-.1 3 3 0 0 1-1.1-.8l-.7-1.4-.2-1.7c0-1.4.3-2.4 1-3.1.6-.7 1.4-1 2.6-1h1l1 .5c.3.2.5.5.7 1 .2.3.3.9.3 1.6l-.1 1.1h-5.1l.1 1.3c.1.3.2.6.5.9l.7.6 1.2.2a3.3 3.3 0 0 0 2-.7l.4 1Zm-2.7-6.5c-.7 0-1.2.2-1.6.5-.3.4-.6 1-.6 1.7h4c0-.8-.2-1.4-.5-1.7-.3-.3-.8-.5-1.3-.5Zm10 2.4v-1l-.7 1-3.6 4.7h-.7v-8h1.3v5.9l.6-1 3.6-4.9h.8v8h-1.3v-4.7Zm-3.2-6.5c.2.5.3.8.6 1l.9.3 1-.3.5-1 1 .3a2 2 0 0 1-1 1.4c-.4.3-.9.5-1.5.5l-.9-.1c-.3 0-.5-.2-.7-.3a2.1 2.1 0 0 1-1-1.4l1.1-.4Zm6.5 10.5c0-.2 0-.5.2-.6.2-.2.4-.3.7-.3.3 0 .6.2.8.4.2.2.3.6.3 1l-.1 1a2.4 2.4 0 0 1-1 1.3l-.6.3-.4-.6c.4-.2.6-.4.8-.7l.3-1h-.3l-.5-.1-.2-.7Zm-181 17.1h-.7V70h-1.3v-8h1.3v3.6l.7-.2 2.6-3.4h1.4l-2.5 3.2-.7.5.8.7 2.7 3.6h-1.6l-2.7-3.6Zm5-.4c0-1.4.4-2.4 1-3.1.6-.7 1.4-1 2.6-1 .6 0 1 0 1.5.2s.8.5 1.1.9c.3.3.5.8.7 1.3l.2 1.7c0 1.4-.3 2.4-1 3.1-.5.7-1.4 1-2.5 1a4 4 0 0 1-1.6-.2 3 3 0 0 1-1.1-.8c-.3-.4-.5-.9-.6-1.4-.2-.5-.2-1-.2-1.7Zm1.4 0v1.2l.5 1 .6.6c.3.2.7.3 1 .3 1.5 0 2.2-1 2.2-3.1l-.1-1.2a3 3 0 0 0-.4-1 1.9 1.9 0 0 0-1.6-.9c-1.5 0-2.2 1-2.2 3.1ZM74 63.1h-2.5V70h-1.3v-6.9h-2.5V62h6.3v1.1Zm.6 2.9c0-1.4.3-2.4.9-3.1.6-.7 1.5-1 2.6-1 .6 0 1.1 0 1.5.2.5.2.9.5 1.2.9.2.3.5.8.6 1.3l.2 1.7c0 1.4-.3 2.4-1 3.1-.5.7-1.4 1-2.5 1a4 4 0 0 1-1.6-.2 3 3 0 0 1-1-.8c-.3-.4-.6-.9-.7-1.4l-.2-1.7Zm1.3 0 .1 1.2.4 1 .7.6c.3.2.6.3 1 .3 1.4 0 2.2-1 2.2-3.1 0-.4 0-.8-.2-1.2a3 3 0 0 0-.3-1 1.9 1.9 0 0 0-1.7-.9C76.7 63 76 64 76 66Zm7.7-4h.9l.2 1h.1c.2-.4.6-.7 1-.9.3-.2.8-.3 1.3-.3 1 0 1.8.3 2.4 1 .5.6.8 1.6.8 3 0 .7-.1 1.3-.3 1.9-.2.5-.4 1-.8 1.3-.3.4-.7.7-1.1.9l-1.5.3h-1l-.7-.3v3.3h-1.3V62Zm3.2 1c-.5 0-1 0-1.2.4-.4.2-.6.7-.7 1.2v4l.7.4h1c.7 0 1.2-.2 1.7-.7.4-.6.6-1.4.6-2.5v-1.2l-.5-.9-.6-.6a2 2 0 0 0-1-.2Zm6.8 5.9h1c.8 0 1.2 0 1.5-.3.3-.3.4-.6.4-1.1 0-.5-.1-.8-.4-1-.3-.4-.7-.5-1.4-.5a11.9 11.9 0 0 0-1.1.1V69Zm0-3.8.7-.1h.7l1.3.1 1 .5.4.8.1 1c0 .9-.2 1.6-.8 2-.5.5-1.4.7-2.6.7l-2.1-.1v-8h1.3v3Zm5.5-3.1h1.3v8h-1.3v-8Zm9.6 7.4-1.2.6a5.1 5.1 0 0 1-3.2-.1 3 3 0 0 1-1-.8c-.4-.4-.6-.9-.7-1.4l-.2-1.7c0-1.4.3-2.4.9-3.1.6-.7 1.5-1 2.6-1h1c.5.1.8.3 1 .5.4.2.6.5.8 1 .2.3.2.9.2 1.6V66h-5.2c0 .5 0 1 .2 1.3 0 .3.2.6.4.9l.8.6 1.2.2a3.3 3.3 0 0 0 1.9-.7l.5 1Zm-2.8-6.5c-.6 0-1.1.2-1.5.5-.4.4-.6 1-.7 1.7h4c0-.8-.2-1.4-.5-1.7-.3-.3-.7-.5-1.3-.5Zm10 .5a3 3 0 0 1 1.2-1c.5-.3 1-.4 1.6-.4 1 0 1.8.4 2.3 1 .5.6.8 1.6.8 2.8 0 1.5-.3 2.6-1 3.3-.6.7-1.4 1-2.5 1-1.2 0-2-.3-2.6-1.1-.6-.8-1-2.1-1-3.8l.2-2.4a8 8 0 0 1 .4-1.6l.6-1.1.9-.6 1-.4 1.2-.1 1.3-.2c.3 0 .6-.2.8-.4l.1 1.2-.3.2-.5.2h-.6l-.9.1-1.2.2c-.4 0-.6.2-1 .5l-.5 1-.3 1.6Zm.2 2.6.1 1.2.4 1c.2.3.4.5.7.6.3.2.6.3 1 .3.7 0 1.3-.3 1.6-.8.4-.5.6-1.3.6-2.4 0-.4 0-.7-.2-1 0-.4-.1-.7-.3-1l-.6-.5c-.3-.2-.6-.2-.9-.2-.8 0-1.4.2-1.8.7-.4.5-.6 1.2-.6 2.1Zm9.9 1.2.4 1.5h.1l.3-1.5 1.6-5.2h1.3l-2.4 7.2a74 74 0 0 1-1 2.8l-.8 1c-.3.2-.6.3-1 .3-.3 0-.6 0-.9-.2l.2-1h.4c.3 0 .6-.2.9-.5.3-.3.5-.8.7-1.6l-3.2-8h1.4l2 5.2Zm12 4.8h-1l-.2-2h-6l-.2 2h-.9V69h1l.3-.6.4-1.3.3-2 .2-3h4.9v6.9h1.1V72Zm-2.5-3.1V63h-2.4a29.7 29.7 0 0 1-.7 4.6l-.5 1.2h3.6Zm6.4-1.7.4 1.5.4-1.5 1.6-5.2h1.3l-2.4 7.2a80.6 80.6 0 0 1-1.1 2.8l-.7 1c-.3.2-.6.3-1 .3-.3 0-.6 0-.9-.2l.2-1h.4c.3 0 .6-.2.9-.5.3-.3.5-.8.7-1.6l-3.2-8h1.4l2 5.2Zm10.1-4h-2.4V70h-1.3v-6.9h-2.5V62h6.2v1.1Zm10.5 6.3-1 .5a4.9 4.9 0 0 1-3-.1c-.5-.2-.8-.5-1-.8-.4-.4-.6-.9-.7-1.4a8 8 0 0 1-.2-1.7c0-1.4.3-2.4 1-3.1.5-.7 1.4-1 2.5-1a5.6 5.6 0 0 1 2.3.4l-.4 1-.8-.2-1-.2c-1.5 0-2.2 1-2.2 3.1v1.2l.5 1 .7.6c.3.2.7.3 1.1.3.4 0 .8 0 1-.2l.8-.4.4 1Zm6-7.5a54.2 54.2 0 0 0 2.8-.1c1 0 1.8.2 2.2.5.5.3.7.8.7 1.5 0 .3 0 .7-.3 1a2 2 0 0 1-1 .8v.1c.6.1 1 .3 1.3.7.2.3.3.7.3 1.2 0 .9-.3 1.5-.9 1.9-.6.3-1.5.5-2.6.5a15 15 0 0 1-2.4-.1v-8Zm1.3 7a12 12 0 0 0 1.3 0c.8 0 1.3-.1 1.6-.3.4-.2.6-.6.6-1s-.2-.7-.5-1c-.3-.2-.8-.3-1.5-.3h-1.5v2.5Zm1.6-3.6a1.7 1.7 0 0 0 1.4-.8l.2-.5c0-.4-.2-.7-.4-.8-.3-.2-.7-.3-1.4-.3a16.2 16.2 0 0 0-1.4 0v2.4h1.6Zm5-2.8c.4-.3.9-.4 1.4-.6a8 8 0 0 1 1.7-.1c.6 0 1 0 1.4.2.3.1.6.3.7.6l.4.8v.8a35.6 35.6 0 0 1 0 3.6 12.4 12.4 0 0 0 .2 2.1h-1l-.3-1a2.7 2.7 0 0 1-1 .7 3.6 3.6 0 0 1-1.6.4l-1-.1-.7-.5-.5-.7-.2-1c0-.4.1-.8.3-1.1l.8-.8 1.3-.4h2.5v-1c0-.5 0-1-.3-1.2-.3-.2-.7-.3-1.3-.3a5 5 0 0 0-1.9.3c-.2 0-.3.2-.5.3l-.4-1Zm2.3 6.4.8-.1.6-.3.4-.4.3-.5v-1.3a6.5 6.5 0 0 0-1 0h-1c-.2 0-.5.1-.7.3-.3 0-.5.2-.6.4a1 1 0 0 0-.2.6c0 .4.1.7.4 1 .2.2.6.3 1 .3Zm12.4-3.8v-1.5l-.6 1.3-1.9 3.1h-.4l-2-3.1-.6-1.3V70h-1.1v-8h1.3l2.2 3.6.5 1 .5-1 2-3.6h1.3v8h-1.2v-4.8Zm8.7 0v-1l-.7 1.1-3.6 4.7h-.7v-8h1.3v5.9l.6-1 3.6-4.9h.8v8h-1.3v-4.7Zm3.3 4.1c0-.2 0-.5.2-.6.2-.2.4-.3.7-.3.3 0 .6.2.8.4.2.2.3.6.3 1l-.1 1a2.4 2.4 0 0 1-1 1.3l-.6.3-.4-.6c.4-.2.6-.4.8-.7l.3-1h-.3l-.5-.1-.2-.7Zm6.6-7.3a53.8 53.8 0 0 0 2.7-.1c1 0 1.8.2 2.3.5.4.3.6.8.6 1.5 0 .3 0 .7-.3 1a2 2 0 0 1-1 .8v.1c.6.1 1 .3 1.3.7.2.3.3.7.3 1.2 0 .9-.3 1.5-.8 1.9-.6.3-1.5.5-2.7.5a15 15 0 0 1-2.4-.1v-8Zm1.3 7a12.2 12.2 0 0 0 1.3 0c.7 0 1.2-.1 1.5-.3.4-.2.6-.6.6-1s-.2-.7-.5-1c-.3-.2-.8-.3-1.5-.3H211v2.5Zm1.5-3.6a1.7 1.7 0 0 0 1.4-.8l.2-.5c0-.4-.2-.7-.4-.8-.3-.2-.7-.3-1.4-.3a16.3 16.3 0 0 0-1.3 0v2.4h1.5Zm4.7.6c0-1.4.3-2.4 1-3.1.5-.7 1.4-1 2.5-1 .6 0 1.1 0 1.6.2.4.2.8.5 1 .9.4.3.6.8.7 1.3.2.5.2 1 .2 1.7 0 1.4-.3 2.4-.9 3.1-.6.7-1.5 1-2.6 1a4 4 0 0 1-1.5-.2 3 3 0 0 1-1.1-.8l-.7-1.4-.2-1.7Zm1.3 0c0 .4 0 .8.2 1.2l.3 1 .7.6c.3.2.6.3 1 .3 1.5 0 2.2-1 2.2-3.1l-.1-1.2a3 3 0 0 0-.4-1c-.2-.2-.4-.5-.7-.6-.3-.2-.6-.3-1-.3-1.4 0-2.2 1-2.2 3.1Zm8.5.4v-1h1.1l.6-.1c.2 0 .4-.2.5-.3.2 0 .3-.2.4-.4l.1-.5c0-.4-.1-.7-.4-.8-.3-.2-.8-.3-1.3-.3-.4 0-.8 0-1.2.2l-.8.4-.4-1 1.2-.5 1.5-.2c1.8 0 2.7.6 2.7 2 0 .3-.1.7-.4 1a2 2 0 0 1-1 .8c.6.2 1 .4 1.3.7.3.4.4.8.4 1.4 0 .3 0 .6-.2.9a2 2 0 0 1-.7.8l-1 .5-1.5.1a5.4 5.4 0 0 1-2.3-.5l.4-1 .9.3 1.1.1c.7 0 1.1 0 1.5-.3.3-.2.5-.6.5-1a1 1 0 0 0-.5-1c-.3-.2-.8-.3-1.6-.3h-.9Zm6.3-4.4h.9l.2 1c.3-.4.6-.7 1-.9.4-.2.9-.3 1.4-.3 1 0 1.8.3 2.4 1 .5.6.7 1.6.7 3 0 .7 0 1.3-.2 1.9-.2.5-.4 1-.8 1.3-.3.4-.7.7-1.1.9l-1.5.3h-1l-.7-.3v3.3h-1.3V62Zm3.2 1c-.5 0-1 0-1.3.4-.3.2-.5.7-.6 1.2v4l.6.4h1c.8 0 1.3-.2 1.8-.7.4-.6.6-1.4.6-2.5l-.1-1.2c0-.3-.2-.6-.4-.9l-.6-.6a2 2 0 0 0-1-.2Zm5.3-.4c.4-.3 1-.4 1.4-.6a8 8 0 0 1 1.7-.1c.6 0 1 0 1.4.2.3.1.6.3.7.6l.4.8v.8a35.6 35.6 0 0 1 0 3.6 12.4 12.4 0 0 0 .2 2.1h-1l-.3-1a2.7 2.7 0 0 1-1 .7 3.6 3.6 0 0 1-1.5.4l-1-.1-.8-.5-.5-.7-.1-1c0-.4 0-.8.2-1.1l.8-.8 1.3-.4h2.5v-1c0-.5 0-1-.3-1.2-.3-.2-.7-.3-1.3-.3a5 5 0 0 0-1.9.3l-.5.3-.4-1Zm2.3 6.4.8-.1.6-.3.4-.4.3-.5v-1.3a6.5 6.5 0 0 0-1 0h-.9c-.3 0-.6.1-.8.3-.3 0-.5.2-.6.4a1 1 0 0 0-.2.6c0 .4.1.7.4 1 .2.2.6.3 1 .3Zm11.3.5-1.2.5a4.9 4.9 0 0 1-3-.1l-1-.8-.6-1.4-.1-1.7c0-1.4.2-2.4.8-3.1.6-.7 1.5-1 2.6-1a5.6 5.6 0 0 1 2.3.4l-.4 1-.8-.2-1-.2c-1.5 0-2.2 1-2.2 3.1v1.2l.5 1 .7.6c.3.2.7.3 1.2.3.3 0 .7 0 1-.2l.7-.4.5 1ZM262 63h-2.5V70h-1.3v-6.9h-2.5V62h6.3v1.1ZM55.2 86.4h-.7V90h-1.3v-8h1.3v3.6l.7-.2 2.6-3.4h1.4l-2.5 3.2-.7.5.8.7 2.7 3.6h-1.6l-2.7-3.6Zm5-.4c0-1.4.4-2.4 1-3.1.6-.7 1.4-1 2.6-1 .6 0 1 0 1.5.2s.8.5 1.1.9c.3.3.5.8.7 1.3l.2 1.7c0 1.4-.3 2.4-1 3.1-.5.7-1.4 1-2.5 1a4 4 0 0 1-1.6-.2 3 3 0 0 1-1.1-.8c-.3-.4-.5-.9-.6-1.4-.2-.5-.2-1-.2-1.7Zm1.4 0v1.2l.5 1 .6.6c.3.2.7.3 1 .3 1.5 0 2.2-1 2.2-3.1l-.1-1.2a3 3 0 0 0-.4-1 1.9 1.9 0 0 0-1.6-.9c-1.5 0-2.2 1-2.2 3.1ZM74 83.1h-2.5V90h-1.3v-6.9h-2.5V82h6.3v1.1Zm.6 2.9c0-1.4.3-2.4.9-3.1.6-.7 1.5-1 2.6-1 .6 0 1.1 0 1.5.2.5.2.9.5 1.2.9.2.3.5.8.6 1.3l.2 1.7c0 1.4-.3 2.4-1 3.1-.5.7-1.4 1-2.5 1a4 4 0 0 1-1.6-.2 3 3 0 0 1-1-.8c-.3-.4-.6-.9-.7-1.4l-.2-1.7Zm1.3 0 .1 1.2.4 1 .7.6c.3.2.6.3 1 .3 1.4 0 2.2-1 2.2-3.1 0-.4 0-.8-.2-1.2a3 3 0 0 0-.3-1 1.9 1.9 0 0 0-1.7-.9C76.7 83 76 84 76 86Zm7.7-4h.9l.2 1h.1c.2-.4.6-.7 1-.9.3-.2.8-.3 1.3-.3 1 0 1.8.3 2.4 1 .5.6.8 1.6.8 3 0 .7-.1 1.3-.3 1.9-.2.5-.4 1-.8 1.3-.3.4-.7.7-1.1.9l-1.5.3h-1l-.7-.3v3.3h-1.3V82Zm3.2 1c-.5 0-1 0-1.2.4-.4.2-.6.7-.7 1.2v4l.7.4h1c.7 0 1.2-.2 1.7-.7.4-.6.6-1.4.6-2.5v-1.2l-.5-.9-.6-.6a2 2 0 0 0-1-.2Zm6.8 5.9h1c.8 0 1.2 0 1.5-.3.3-.3.4-.6.4-1.1 0-.5-.1-.8-.4-1-.3-.4-.7-.5-1.4-.5a11.9 11.9 0 0 0-1.1.1V89Zm0-3.8.7-.1h.7l1.3.1 1 .5.4.8.1 1c0 .9-.2 1.6-.8 2-.5.5-1.4.7-2.6.7l-2.1-.1v-8h1.3v3Zm5.5-3.1h1.3v8h-1.3v-8Zm5.8 3.9-2.7-3.9h1.6l1.5 2.2.5 1 .4-1L108 82h1.4l-2.7 3.8 2.9 4.2H108l-1.7-2.4-.5-1-.5 1-1.7 2.4h-1.4l2.8-4.1Zm9.5.1c0-1.4.3-2.4 1-3.1.6-.7 1.4-1 2.6-1 .6 0 1 0 1.5.2s.8.5 1.1.9c.3.3.5.8.6 1.3.2.5.3 1 .3 1.7 0 1.4-.3 2.4-1 3.1-.6.7-1.4 1-2.5 1a4 4 0 0 1-1.6-.2 3 3 0 0 1-1.1-.8c-.3-.4-.5-.9-.6-1.4-.2-.5-.3-1-.3-1.7Zm1.4 0v1.2l.5 1 .6.6c.3.2.7.3 1 .3 1.5 0 2.2-1 2.2-3.1l-.1-1.2a3 3 0 0 0-.4-1 1.9 1.9 0 0 0-1.6-.9c-1.5 0-2.2 1-2.2 3.1Zm12.5-2.9H126V90h-1.3v-6.9h-2.5V82h6.3v1.1Zm11.7 3.5c0 .5 0 1-.2 1.4l-.7 1.2a3.2 3.2 0 0 1-2.5 1c-.6 0-1 0-1.5-.3a3 3 0 0 1-1-.7c-.4-.4-.6-.8-.8-1.3l-.2-1.7c0-1 .1-2 .4-2.9a8 8 0 0 1 1.1-2.3 6 6 0 0 1 1.7-1.6c.7-.4 1.4-.7 2.2-.8l.2 1c-.6.1-1.1.3-1.6.6a5.3 5.3 0 0 0-2.2 2.6l-.5 1.7c.2-.3.5-.6.9-.8.4-.2.9-.4 1.5-.4 1 0 1.8.3 2.3 1 .6.5.9 1.3.9 2.3Zm-1.3.2c0-.8-.2-1.4-.6-1.8-.3-.3-.9-.5-1.6-.5-.5 0-1 0-1.4.3-.3.3-.6.6-.7 1v1.6l.5.8c.2.3.4.5.7.6.3.2.6.3 1 .3.3 0 .6 0 .8-.2a2 2 0 0 0 1.1-1.2l.2-1ZM153 92h-.9l-.2-2h-6l-.3 2h-.8V89h1l.3-.6.4-1.3.3-2 .2-3h4.8v6.9h1.2V92Zm-2.4-3.1V83h-2.4a28.5 28.5 0 0 1-.7 4.6l-.5 1.2h3.6Zm3.5-2.9c0-1.4.3-2.4 1-3.1.5-.7 1.4-1 2.5-1 .6 0 1.2 0 1.6.2.4.2.8.5 1.1.9.3.3.5.8.6 1.3.2.5.2 1 .2 1.7 0 1.4-.3 2.4-.9 3.1-.6.7-1.4 1-2.6 1a4 4 0 0 1-1.5-.2 3 3 0 0 1-1.1-.8l-.7-1.4-.2-1.7Zm1.4 0v1.2l.5 1 .6.6c.3.2.6.3 1 .3 1.5 0 2.2-1 2.2-3.1l-.1-1.2a3 3 0 0 0-.4-1 1.9 1.9 0 0 0-1.7-.9c-1.4 0-2.1 1-2.1 3.1Zm12.4 2.8h2.3v-7.7l.1-1-.6.8L168 82l-.6-.8 3.5-2.7h.6v10.2h2.2V90H168v-1.2Zm8.1-1.5c0-.6.2-1.2.5-1.7.4-.5 1-1 1.7-1.4a4 4 0 0 1-1.4-1.1 3 3 0 0 1-.4-.7 3 3 0 0 1-.1-1c0-.4 0-.8.2-1.1a2.6 2.6 0 0 1 1.6-1.5l1.3-.2c.4 0 .8 0 1.2.2l.9.5a2.3 2.3 0 0 1 .8 1.9c0 .6-.1 1.1-.4 1.6-.3.4-.8.9-1.4 1.3l.8.6a3.4 3.4 0 0 1 1 1.4c.2.3.2.6.2 1s0 .9-.2 1.3a2.8 2.8 0 0 1-1.7 1.6l-1.4.2c-.5 0-1 0-1.4-.2a3 3 0 0 1-1-.6c-.2-.3-.5-.6-.6-1a3 3 0 0 1-.2-1Zm5.3-.1c0-.4 0-.6-.2-.9l-.5-.6-.7-.6-.8-.4c-.7.3-1.2.7-1.4 1.2-.3.4-.4.9-.4 1.3v.7l.5.6c.1.2.3.3.6.4l.9.2.7-.1.7-.4.4-.6.2-.8Zm-3.8-5.8c0 .3 0 .5.2.8l.4.6.7.5.8.4c.5-.3.9-.7 1-1 .3-.4.4-.8.4-1.3s-.1-1-.5-1.2c-.3-.3-.7-.5-1.2-.5a2 2 0 0 0-1.3.5 1.5 1.5 0 0 0-.5 1.2Zm15.5 1.7h-2.3a144.2 144.2 0 0 0-.5 4.5c0 .5-.2.9-.4 1.3l-.6.8c-.2.3-.5.4-.9.4h-.5l-.4-.2.2-1h.4c.2 0 .4 0 .6-.3.2-.1.3-.5.4-1a50.5 50.5 0 0 0 .5-5.6h4.8v8h-1.3v-6.9Zm9.6 6.3-1.2.6a5.1 5.1 0 0 1-3.1-.1 3 3 0 0 1-1.1-.8l-.7-1.4-.2-1.7c0-1.4.3-2.4 1-3.1.5-.7 1.4-1 2.5-1h1.1l1 .5c.3.2.5.5.7 1 .2.3.3.9.3 1.6l-.1 1.1h-5.1l.1 1.3c0 .3.2.6.4.9l.8.6 1.2.2a3.3 3.3 0 0 0 2-.7l.4 1Zm-2.7-6.5c-.7 0-1.2.2-1.6.5-.3.4-.6 1-.6 1.7h4c0-.8-.2-1.4-.5-1.7-.3-.3-.8-.5-1.3-.5Zm10 .2h-2.4V90h-1.3v-6.9h-2.5V82h6.3v1.1Zm-.3 6.2c0-.3 0-.5.2-.7.2-.2.4-.3.7-.3.3 0 .5.1.7.3l.2.7c0 .2 0 .5-.2.6a1 1 0 0 1-.7.3 1 1 0 0 1-.7-.3 1 1 0 0 1-.2-.6ZM225 92h-.9L224 90H216l-.2 2h-1v-3.2h1.2l.4-.8.5-1.9a30 30 0 0 0 .7-7.3h6v10h1.4v3.3Zm-2.8-3.3V80H219a42.9 42.9 0 0 1-1 7.5c0 .5-.2 1-.4 1.3h4.8Zm10 .6-1.2.6a5.1 5.1 0 0 1-3.2-.1 3 3 0 0 1-1-.8c-.4-.4-.6-.9-.7-1.4L226 86c0-1.4.3-2.4.9-3.1.6-.7 1.5-1 2.6-1h1c.5.1.8.3 1 .5.4.2.6.5.8 1 .2.3.2.9.2 1.6V86h-5.2c0 .5 0 1 .2 1.3 0 .3.2.6.4.9l.8.6 1.2.2a3.3 3.3 0 0 0 1.9-.7l.5 1Zm-2.8-6.5c-.6 0-1.1.2-1.5.5-.4.4-.6 1-.7 1.7h4c0-.8-.2-1.4-.5-1.7-.3-.3-.7-.5-1.3-.5Zm10.1.2h-2.4V90h-1.3v-6.9h-2.5V82h6.2v1.1Zm6.3 2.2v-1l-.6 1-3.6 4.7h-.8v-8h1.3v5.9l.6-1 3.6-4.9h.8v8h-1.3v-4.7ZM60.3 112h-.9l-.2-2h-6l-.3 2h-.8V109h1l.3-.6.4-1.3.3-2 .2-3h4.8v6.9h1.2v3.1Zm-2.4-3.1V103h-2.4a28.5 28.5 0 0 1-.7 4.6l-.5 1.2h3.6Zm3.5-2.9c0-1.4.3-2.4 1-3.1.5-.7 1.4-1 2.5-1 .6 0 1.2 0 1.6.2.4.2.8.5 1.1.9.3.3.5.8.6 1.3.2.5.2 1 .2 1.7 0 1.4-.3 2.4-.9 3.1-.6.7-1.4 1-2.6 1a4 4 0 0 1-1.5-.2 3 3 0 0 1-1.1-.8l-.7-1.4-.2-1.7Zm1.4 0v1.2l.5 1 .6.6c.3.2.6.3 1 .3 1.5 0 2.2-1 2.2-3.1l-.1-1.2a3 3 0 0 0-.4-1 1.9 1.9 0 0 0-1.7-.9c-1.4 0-2.1 1-2.1 3.1Zm18.6.6c0 .5-.1 1-.3 1.4l-.6 1.2a3.2 3.2 0 0 1-2.5 1c-.6 0-1 0-1.5-.3a3 3 0 0 1-1-.7c-.4-.4-.6-.8-.8-1.3-.2-.5-.2-1-.2-1.7 0-1 0-2 .4-2.9A8 8 0 0 1 76 101a6 6 0 0 1 1.7-1.6c.7-.4 1.4-.7 2.1-.8l.3 1c-.6.1-1.1.3-1.6.6a5.4 5.4 0 0 0-2.2 2.6c-.3.6-.4 1.1-.5 1.7.2-.3.5-.6.9-.8.4-.2.9-.4 1.5-.4 1 0 1.7.3 2.3 1 .6.5.9 1.3.9 2.3Zm-1.4.2c0-.8-.1-1.4-.5-1.8-.3-.3-.9-.5-1.6-.5-.5 0-1 0-1.4.3l-.8 1v.6l.1 1 .5.8c.2.3.4.5.7.6.3.2.6.3 1 .3.3 0 .6 0 .8-.2a2 2 0 0 0 1-1.2c.2-.3.2-.6.2-1Zm11.6-3.7h-2.3a143.6 143.6 0 0 0-.5 4.5l-.4 1.3-.6.8c-.3.3-.5.4-.9.4h-.5l-.4-.2.2-1h.4c.2 0 .4 0 .6-.3.2-.1.3-.5.4-1a50.2 50.2 0 0 0 .5-5.6H93v8h-1.3v-6.9Zm9.6 6.3-1.2.6-1.6.2a4 4 0 0 1-1.5-.3 3 3 0 0 1-1.1-.8l-.7-1.4-.2-1.7c0-1.4.3-2.4 1-3.1.5-.7 1.4-1 2.5-1h1.1l1 .5c.3.2.5.5.7 1 .2.3.3.9.3 1.6l-.1 1.1h-5.2c0 .5 0 1 .2 1.3 0 .3.2.6.4.9l.8.6 1.2.2a3.3 3.3 0 0 0 2-.7l.4 1Zm-2.8-6.5c-.6 0-1 .2-1.5.5-.3.4-.6 1-.6 1.7h4c0-.8-.2-1.4-.5-1.7-.4-.3-.8-.5-1.4-.5Zm10.2.2H106v6.9h-1.3v-6.9h-2.5V102h6.3v1.1Zm5-1.1h.9l.2 1 1-.9c.4-.2.9-.3 1.4-.3 1 0 1.8.3 2.4 1 .5.6.7 1.6.7 3 0 .7 0 1.3-.2 1.9-.2.5-.4 1-.8 1.3-.3.4-.7.7-1.1.9l-1.5.3h-1l-.7-.3v3.3h-1.3V102Zm3.2 1c-.5 0-1 0-1.3.4-.3.2-.5.7-.6 1.2v4l.6.4h1c.8 0 1.3-.2 1.8-.7.4-.6.6-1.4.6-2.5v-1.2l-.5-.9-.6-.6a2 2 0 0 0-1-.2Zm5.3-.4c.4-.3 1-.4 1.4-.6a8 8 0 0 1 1.7-.1c.6 0 1 0 1.4.2.3.1.6.3.7.6l.4.8v.8a35.6 35.6 0 0 1 0 3.6 12.4 12.4 0 0 0 .2 2.1h-1l-.3-1a2.7 2.7 0 0 1-1 .7 3.6 3.6 0 0 1-1.5.4l-1-.1-.8-.5-.5-.7-.1-1c0-.4 0-.8.2-1.1l.8-.8 1.3-.4h2.5v-1c0-.5 0-1-.3-1.2-.3-.2-.7-.3-1.3-.3a5 5 0 0 0-2.4.6l-.4-1Zm2.3 6.4.8-.1.6-.3.4-.4.3-.5v-1.3h-.5a6 6 0 0 0-2.2.3c-.3 0-.5.2-.6.4a1 1 0 0 0-.2.6c0 .4.1.7.4 1 .3.2.6.3 1 .3Zm6.6-2.6v-1h1l.6-.1.6-.3.3-.4.2-.5c0-.4-.2-.7-.5-.8-.3-.2-.7-.3-1.3-.3-.4 0-.8 0-1.1.2l-.8.4-.4-1 1.1-.5 1.6-.2c1.8 0 2.6.6 2.6 2 0 .3 0 .7-.3 1a2 2 0 0 1-1 .8c.6.2 1 .4 1.3.7.2.4.3.8.3 1.4 0 .3 0 .6-.2.9a2 2 0 0 1-.6.8l-1 .5-1.5.1a5.4 5.4 0 0 1-2.3-.5l.3-1 1 .3 1 .1c.7 0 1.2 0 1.5-.3.4-.2.6-.6.6-1a1 1 0 0 0-.5-1c-.3-.2-.9-.3-1.6-.3h-1Zm12.9-1.2v-1.5l-.6 1.3-2 3.1h-.4l-2-3.1-.5-1.3v6.3h-1.1v-8h1.2l2.3 3.6.4 1 .5-1 2.1-3.6h1.3v8H144v-4.8Zm9.5 4.2-1.2.6-1.5.2a4 4 0 0 1-1.6-.3 3 3 0 0 1-1.1-.8l-.7-1.4-.2-1.7c0-1.4.3-2.4 1-3.1.5-.7 1.4-1 2.5-1h1.1l1 .5c.3.2.5.5.7 1 .2.3.3.9.3 1.6l-.1 1.1h-5.1l.1 1.3.4.9.8.6 1.2.2a3.3 3.3 0 0 0 2-.7l.4 1Zm-2.7-6.5c-.7 0-1.2.2-1.6.5-.3.4-.6 1-.6 1.7h4c0-.8-.2-1.4-.5-1.7-.3-.3-.8-.5-1.3-.5Zm15.5 9.2h-.9l-.2-2.1h-9.4v-8h1.3v6.9h2.7V102h1.3v6.9h2.7V102h1.3v6.9h1.2v3.2Zm1.4-9.5c.4-.3.9-.4 1.4-.6a8 8 0 0 1 1.7-.1c.6 0 1 0 1.4.2.3.1.5.3.7.6l.4.8v.8a35.6 35.6 0 0 1 0 3.6 12.4 12.4 0 0 0 .2 2.1h-1l-.3-1a2.7 2.7 0 0 1-1 .7 3.6 3.6 0 0 1-1.6.4l-1-.1-.7-.5-.5-.7-.2-1c0-.4.1-.8.3-1.1l.8-.8 1.3-.4h2.5v-1c0-.5-.1-1-.3-1.2-.3-.2-.7-.3-1.3-.3a5 5 0 0 0-1.9.3c-.2 0-.3.2-.5.3l-.4-1Zm2.3 6.4.8-.1.6-.3.4-.4.3-.5v-1.3h-.5a6.1 6.1 0 0 0-2.2.3c-.3 0-.5.2-.6.4a1 1 0 0 0-.2.6c0 .4.1.7.4 1 .2.2.6.3 1 .3Zm12 1.2c-.6 0-1 0-1.5-.3-.4-.1-.7-.4-1-.7-.3-.3-.5-.7-.6-1.2l-.2-1.5H177v3.5h-1.3v-8h1.3v3.3h1.6c0-1.1.4-2 1-2.6.5-.6 1.3-.9 2.3-.9.6 0 1.1.1 1.5.3.4.2.8.5 1 .9.3.3.5.8.6 1.3l.2 1.7c0 1.4-.3 2.4-.8 3.1-.6.7-1.4 1-2.5 1Zm-2-4.2v1.2c0 .4.2.7.4 1 .1.3.3.5.6.6.3.2.6.3 1 .3.7 0 1.2-.3 1.5-.8.3-.5.4-1.2.4-2.3v-1.2a3 3 0 0 0-.4-1l-.5-.6c-.3-.2-.6-.3-1-.3-.7 0-1.3.3-1.6.8-.3.5-.5 1.2-.5 2.3Zm12.1-2.9h-2.5v6.9h-1.3v-6.9h-2.4V102h6.2v1.1Zm6.5 6.4-1.1.5a4.9 4.9 0 0 1-3-.1c-.4-.2-.8-.5-1-.8-.3-.4-.5-.9-.6-1.4l-.2-1.7c0-1.4.3-2.4.9-3.1.6-.7 1.4-1 2.6-1a5.6 5.6 0 0 1 2.2.4l-.3 1-.8-.2-1-.2c-1.5 0-2.3 1-2.3 3.1l.1 1.2.4 1 .8.6c.3.2.7.3 1.1.3.4 0 .7 0 1-.2l.8-.4.4 1Zm5.7-2.8-1.2.2-2.1 3.1h-1.5l1.9-2.7.6-.6c-.5-.1-1-.3-1.4-.7a2 2 0 0 1-.6-1.5c0-.5 0-.9.3-1.2.1-.3.4-.6.7-.9a3 3 0 0 1 1-.4 7.2 7.2 0 0 1 2.5 0h1.1v8h-1.3v-3.3Zm0-3.6a2 2 0 0 0-.4-.1h-.5c-.6 0-1.2 0-1.5.3-.4.2-.6.6-.6 1.2 0 .4.2.8.6 1 .4.3.9.5 1.5.5h.9v-3ZM54 123.4a3 3 0 0 1 1.1-1c.5-.3 1-.4 1.6-.4 1 0 1.8.4 2.3 1 .5.6.8 1.6.8 2.8 0 1.5-.3 2.6-1 3.3-.5.7-1.4 1-2.5 1-1.2 0-2-.3-2.6-1.1-.6-.8-1-2.1-1-3.8l.2-2.4a8 8 0 0 1 .4-1.6c.2-.5.4-.9.7-1.1.2-.3.5-.5.8-.6l1-.4 1.2-.1 1.3-.2c.4 0 .6-.2.8-.4l.1 1.2-.3.2-.5.2h-.6l-.9.1-1.2.2a2 2 0 0 0-.9.5l-.6 1-.3 1.6Zm.1 2.6.1 1.2.4 1c.2.3.4.5.7.6.3.2.6.3 1 .3.7 0 1.3-.3 1.6-.8.4-.5.6-1.3.6-2.4l-.1-1-.4-1-.6-.5c-.3-.2-.5-.2-.9-.2-.8 0-1.4.2-1.8.7-.4.5-.6 1.2-.6 2.1Zm13.6 3.4-1.3.6-1.5.2a4 4 0 0 1-1.6-.3 3 3 0 0 1-1-.8c-.4-.4-.6-.9-.7-1.4-.2-.5-.2-1-.2-1.7 0-1.4.3-2.4.9-3.1.6-.7 1.5-1 2.6-1h1l1 .5c.3.2.6.5.8 1l.2 1.6v1.1h-5.2l.1 1.3.5.9.8.6 1.2.2a3.3 3.3 0 0 0 1.9-.7l.5 1Zm-2.8-6.5c-.6 0-1.1.2-1.5.5-.4.4-.6 1-.7 1.7h4c0-.8-.2-1.4-.5-1.7-.3-.3-.7-.5-1.3-.5Zm10.3 6.6-1.1.5a4.9 4.9 0 0 1-3-.1l-1-.8c-.3-.4-.5-.9-.6-1.4l-.2-1.7c0-1.4.3-2.4 1-3.1.5-.7 1.4-1 2.5-1a5.6 5.6 0 0 1 2.3.4l-.4 1-.8-.2-1-.2c-1.5 0-2.3 1-2.3 3.1 0 .4 0 .8.2 1.2 0 .3.2.7.4 1l.7.6c.3.2.7.3 1.1.3.4 0 .8 0 1-.2l.8-.4.4 1Zm6.6-6.4h-3.5v6.9H77v-8h6v8h-1.2v-6.9Zm8 0h-2.3a143.6 143.6 0 0 0-.5 4.5c0 .5-.2.9-.4 1.3-.1.3-.3.6-.6.8-.2.3-.5.4-.8.4h-.6l-.4-.2.2-1h.4c.3 0 .4 0 .6-.3.2-.1.3-.5.5-1l.3-2.1.2-3.5H91v8h-1.3v-6.9Zm3.7-.5c.4-.3.8-.4 1.4-.6a8 8 0 0 1 1.7-.1c.5 0 1 0 1.3.2.3.1.6.3.8.6.1.2.3.5.3.8l.1.8a35.6 35.6 0 0 1 0 3.6 12.4 12.4 0 0 0 .1 2.1h-.9l-.3-1h-.1a2.7 2.7 0 0 1-.9.7 3.6 3.6 0 0 1-1.6.4l-1-.1-.7-.5-.5-.7c-.2-.3-.2-.6-.2-1s0-.8.3-1.1c.2-.3.4-.6.8-.8l1.2-.4h2.5v-1c0-.5 0-1-.3-1.2-.2-.2-.7-.3-1.3-.3a5 5 0 0 0-1.9.3l-.4.3-.4-1Zm2.2 6.4.8-.1c.3 0 .5-.2.6-.3l.5-.4.2-.5v-1.3h-.4a6.1 6.1 0 0 0-2.3.3c-.2 0-.4.2-.6.4a1 1 0 0 0-.2.6c0 .4.1.7.4 1 .3.2.6.3 1 .3Zm11-5.9H104v6.9h-1.3v-6.9h-2.5V122h6.3v1.1Zm6 3.4h-3.5v3.5h-1.3v-8h1.3v3.3h3.6V122h1.3v8h-1.3v-3.5Zm3.4-.5c0-1.4.3-2.4.9-3.1.6-.7 1.5-1 2.6-1 .6 0 1.1 0 1.5.2.5.2.9.5 1.1.9.3.3.5.8.7 1.3l.2 1.7c0 1.4-.3 2.4-1 3.1-.5.7-1.4 1-2.5 1a4 4 0 0 1-1.6-.2 3 3 0 0 1-1-.8c-.4-.4-.6-.9-.7-1.4l-.2-1.7Zm1.3 0 .1 1.2.4 1 .7.6c.3.2.6.3 1 .3 1.4 0 2.2-1 2.2-3.1 0-.4 0-.8-.2-1.2a3 3 0 0 0-.3-1 1.9 1.9 0 0 0-1.7-.9c-1.5 0-2.2 1-2.2 3.1Zm7 3.3c0-.3.2-.5.3-.7.2-.2.4-.3.7-.3.3 0 .5.1.7.3l.2.7c0 .2 0 .5-.2.6a1 1 0 0 1-.7.3 1 1 0 0 1-.7-.3 1 1 0 0 1-.2-.6Z" fill="#fff"/><path d="m157.5 6 9.5 9h-19l9.5-9Z" fill="#333"/><defs><filter id="a" x="0" y="0" width="316" height="203" filterUnits="userSpaceOnUse" color-interpolation-filters="sRGB"><feFlood flood-opacity="0" result="BackgroundImageFix"/><feColorMatrix in="SourceAlpha" values="0 0 0 0 0 0 0 0 0 0 0 0 0 0 0 0 0 0 127 0" result="hardAlpha"/><feOffset dy="15"/><feGaussianBlur stdDeviation="15"/><feColorMatrix values="0 0 0 0 0 0 0 0 0 0 0 0 0 0 0 0 0 0 0.3 0"/><feBlend in2="BackgroundImageFix" result="effect1_dropShadow_39785_722"/><feBlend in="SourceGraphic" in2="effect1_dropShadow_39785_722" result="shape"/></filter></defs></svg>